<svg xmlns="http://www.w3.org/2000/svg" viewBox="0 0 16 16" width="32" height="32">
  <rect width="16" height="16" rx="3" fill="#4f46e5"/>
  <g fill="white">
    <rect x="4" y="4" width="1" height="1"/>
    <rect x="11" y="4" width="1" height="1"/>
    <rect x="5" y="5" width="1" height="1"/>
    <rect x="10" y="5" width="1" height="1"/>
    <rect x="4" y="6" width="8" height="1"/>
    <rect x="3" y="7" width="2" height="1"/>
    <rect x="5" y="7" width="1" height="1" fill="#4f46e5"/>
    <rect x="6" y="7" width="4" height="1"/>
    <rect x="10" y="7" width="1" height="1" fill="#4f46e5"/>
    <rect x="11" y="7" width="2" height="1"/>
    <rect x="2" y="8" width="12" height="1"/>
    <rect x="2" y="9" width="1" height="1"/>
    <rect x="3" y="9" width="1" height="1" fill="#4f46e5"/>
    <rect x="4" y="9" width="8" height="1"/>
    <rect x="12" y="9" width="1" height="1" fill="#4f46e5"/>
    <rect x="13" y="9" width="1" height="1"/>
    <rect x="2" y="10" width="1" height="1"/>
    <rect x="4" y="10" width="1" height="1"/>
    <rect x="11" y="10" width="1" height="1"/>
    <rect x="13" y="10" width="1" height="1"/>
    <rect x="5" y="11" width="2" height="1"/>
    <rect x="9" y="11" width="2" height="1"/>
  </g>
</svg>
